<svg width="24" height="24" viewBox="0 0 24 24" fill="none" xmlns="http://www.w3.org/2000/svg">
  <path d="M12 4.5C9.5 4.5 7.2 5.5 5.5 7.2L3 5V11H9L6.8 8.8C8.2 7.4 10 6.5 12 6.5C14 6.5 15.8 7.4 17.2 8.8L15 11H21V5L18.5 7.2C16.8 5.5 14.5 4.5 12 4.5Z" fill="currentColor"/>
  <circle cx="8" cy="14" r="2.5" stroke="currentColor" stroke-width="1.5"/>
  <circle cx="16" cy="14" r="2.5" stroke="currentColor" stroke-width="1.5"/>
  <path d="M12 14L10.5 17H13.5L12 14Z" fill="currentColor"/>
  <path d="M4 12C4 16.4183 7.58172 20 12 20C16.4183 20 20 16.4183 20 12" stroke="currentColor" stroke-width="1.5" stroke-linecap="round"/>
</svg>
