<svg xmlns="http://www.w3.org/2000/svg" xmlns:xlink="http://www.w3.org/1999/xlink" contentStyleType="text/css" data-diagram-type="CLASS" height="71px" preserveAspectRatio="none" style="width:555px;height:71px;background:#FFFFFF;" version="1.1" viewBox="0 0 555 71" width="555px" zoomAndPan="magnify"><defs/><g><!--class ex_C--><g id="elem_ex_C"><rect codeLine="6" fill="#F1F1F1" height="57.6094" id="ex_C" rx="2.5" ry="2.5" style="stroke:#181818;stroke-width:0.5;" width="83.5791" x="227" y="7"/><ellipse cx="252.2568" cy="23" fill="#FFA500" rx="11" ry="11" style="stroke:#181818;stroke-width:1;"/><path d="M255.0225,18.875 Q255.1787,18.6563 255.3662,18.5469 Q255.5537,18.4375 255.7725,18.4375 Q256.1475,18.4375 256.3818,18.7031 Q256.6162,18.9531 256.6162,19.5625 L256.6162,21.0156 Q256.6162,21.625 256.3818,21.8906 Q256.1475,22.1563 255.7725,22.1563 Q255.4287,22.1563 255.2256,21.9531 Q255.0225,21.7656 254.9131,21.25 Q254.8662,20.8906 254.6787,20.7031 Q254.3506,20.3281 253.7412,20.1094 Q253.1318,19.8906 252.5068,19.8906 Q251.7412,19.8906 251.1006,20.2188 Q250.4756,20.5469 249.9756,21.2969 Q249.4912,22.0469 249.4912,23.0781 L249.4912,24.1719 Q249.4912,25.4063 250.3818,26.2344 Q251.2725,27.0469 252.8662,27.0469 Q253.8037,27.0469 254.46,26.7969 Q254.8506,26.6406 255.2725,26.2031 Q255.5381,25.9375 255.6787,25.8594 Q255.835,25.7813 256.0381,25.7813 Q256.3662,25.7813 256.6162,26.0469 Q256.8818,26.2969 256.8818,26.6406 Q256.8818,26.9844 256.5381,27.3906 Q256.0381,27.9688 255.2412,28.2969 Q254.1631,28.75 252.8662,28.75 Q251.3506,28.75 250.1475,28.125 Q249.1631,27.625 248.4756,26.5625 Q247.7881,25.4844 247.7881,24.2031 L247.7881,23.0469 Q247.7881,21.7188 248.3975,20.5781 Q249.0225,19.4219 250.1162,18.8125 Q251.21,18.1875 252.4443,18.1875 Q253.1787,18.1875 253.8193,18.3594 Q254.4756,18.5156 255.0225,18.875 Z " fill="#000000"/><text fill="#000000" font-family="sans-serif" font-size="14" lengthAdjust="spacing" textLength="28.7861" x="268.5361" y="28.7285">ex:C</text><line style="stroke:#181818;stroke-width:0.5;" x1="228" x2="309.5791" y1="39" y2="39"/><text fill="#000000" font-family="sans-serif" font-size="14" lengthAdjust="spacing" textLength="71.5791" x="233" y="57.5332">a owl:Class</text></g><!--class ex_D--><g id="elem_ex_D"><rect codeLine="9" fill="#F1F1F1" height="57.6094" id="ex_D" rx="2.5" ry="2.5" style="stroke:#181818;stroke-width:0.5;" width="83.5791" x="465" y="7"/><ellipse cx="490.2568" cy="23" fill="#FFA500" rx="11" ry="11" style="stroke:#181818;stroke-width:1;"/><path d="M493.0225,18.875 Q493.1787,18.6563 493.3662,18.5469 Q493.5537,18.4375 493.7725,18.4375 Q494.1475,18.4375 494.3818,18.7031 Q494.6162,18.9531 494.6162,19.5625 L494.6162,21.0156 Q494.6162,21.625 494.3818,21.8906 Q494.1475,22.1563 493.7725,22.1563 Q493.4287,22.1563 493.2256,21.9531 Q493.0225,21.7656 492.9131,21.25 Q492.8662,20.8906 492.6787,20.7031 Q492.3506,20.3281 491.7412,20.1094 Q491.1318,19.8906 490.5068,19.8906 Q489.7412,19.8906 489.1006,20.2188 Q488.4756,20.5469 487.9756,21.2969 Q487.4912,22.0469 487.4912,23.0781 L487.4912,24.1719 Q487.4912,25.4063 488.3818,26.2344 Q489.2725,27.0469 490.8662,27.0469 Q491.8037,27.0469 492.46,26.7969 Q492.8506,26.6406 493.2725,26.2031 Q493.5381,25.9375 493.6787,25.8594 Q493.835,25.7813 494.0381,25.7813 Q494.3662,25.7813 494.6162,26.0469 Q494.8818,26.2969 494.8818,26.6406 Q494.8818,26.9844 494.5381,27.3906 Q494.0381,27.9688 493.2412,28.2969 Q492.1631,28.75 490.8662,28.75 Q489.3506,28.75 488.1475,28.125 Q487.1631,27.625 486.4756,26.5625 Q485.7881,25.4844 485.7881,24.2031 L485.7881,23.0469 Q485.7881,21.7188 486.3975,20.5781 Q487.0225,19.4219 488.1162,18.8125 Q489.21,18.1875 490.4443,18.1875 Q491.1787,18.1875 491.8193,18.3594 Q492.4756,18.5156 493.0225,18.875 Z " fill="#000000"/><text fill="#000000" font-family="sans-serif" font-size="14" lengthAdjust="spacing" textLength="28.7861" x="506.5361" y="28.7285">ex:D</text><line style="stroke:#181818;stroke-width:0.5;" x1="466" x2="547.5791" y1="39" y2="39"/><text fill="#000000" font-family="sans-serif" font-size="14" lengthAdjust="spacing" textLength="71.5791" x="471" y="57.5332">a owl:Class</text></g><!--class owl_Thing--><g id="elem_owl_Thing"><rect codeLine="14" fill="#F1F1F1" height="27.6094" id="owl_Thing" rx="2.5" ry="2.5" style="stroke:#181818;stroke-width:0.5;" width="65.917" x="7" y="22"/><text fill="#000000" font-family="sans-serif" font-size="14" lengthAdjust="spacing" textLength="59.917" x="10" y="41.5332">owl:Thing</text></g><!--reverse link ex_C to ex_D--><g id="link_ex_C_ex_D"><path codeLine="12" d="M329.11,36 C372.29,36 421.81,36 464.97,36 " fill="transparent" id="ex_C-backto-ex_D" style="stroke:#181818;stroke-width:1;"/><polygon fill="transparent" points="311.11,36,329.11,42,329.11,30,311.11,36" style="stroke:#181818;stroke-width:1;"/><text fill="#000000" font-family="sans-serif" font-size="13" lengthAdjust="spacing" textLength="92.4727" x="342" y="32.4951">rdfs:subClassOf</text></g><!--reverse link owl_Thing to ex_C--><g id="link_owl_Thing_ex_C"><path codeLine="15" d="M91.04,36 C131.37,36 182.7,36 226.9,36 " fill="transparent" id="owl_Thing-backto-ex_C" style="stroke:#181818;stroke-width:1;"/><polygon fill="transparent" points="73.04,36,91.04,42,91.04,30,73.04,36" style="stroke:#181818;stroke-width:1;"/><text fill="#000000" font-family="sans-serif" font-size="13" lengthAdjust="spacing" textLength="92.4727" x="104" y="32.4951">rdfs:subClassOf</text></g><!--SRC=[TOxBYi8m58RtUOf3LmeAimvIa7OpAnVZNjBqj3bCcfGanVkxQvCw8wYx_9Sl_r5K8s3NXoDqs5NeF0DGeod9IOrtvN_9zCA93gGMtgz3S5GD0R-bDJzqGlXY6fi0mOAZLWMeoQ4CP0sB0E1XLu3maE615zcpkLhDYiN62TFYFC-PLtQVWcdyhre- -39xDZ_mvOEFRmxdXb3NLn1WzveN8v-YvT0lBtcQvE3gndC_LB6mQTXalwFJ3NUzsoeoRRnkJAFA4Zbz_bzwMRW1]--></g></svg>