<svg xmlns="http://www.w3.org/2000/svg" xmlns:xlink="http://www.w3.org/1999/xlink" contentStyleType="text/css" data-diagram-type="CLASS" height="70px" preserveAspectRatio="none" style="width:201px;height:70px;background:#FFFFFF;" version="1.1" viewBox="0 0 201 70" width="201px" zoomAndPan="magnify"><defs/><g><!--class ex_a--><g id="elem_ex_a"><rect codeLine="5" fill="#F1F1F1" height="53.2188" id="ex_a" rx="2.5" ry="2.5" style="stroke:#181818;stroke-width:0.5;" width="52.4619" x="7" y="7"/><text fill="#000000" font-family="sans-serif" font-size="14" lengthAdjust="spacing" textLength="26.4619" x="20" y="26.5332">ex:a</text><line style="stroke:#181818;stroke-width:0.5;" x1="8" x2="58.4619" y1="34.6094" y2="34.6094"/><text fill="#000000" font-family="sans-serif" font-size="14" lengthAdjust="spacing" textLength="40.4619" x="13" y="53.1426">a ex:C</text></g><!--class ex_b--><g id="elem_ex_b"><rect codeLine="7" fill="#F1F1F1" height="53.2188" id="ex_b" rx="2.5" ry="2.5" style="stroke:#181818;stroke-width:0.5;" width="52.4619" x="142" y="7"/><text fill="#000000" font-family="sans-serif" font-size="14" lengthAdjust="spacing" textLength="26.4619" x="155" y="26.5332">ex:b</text><line style="stroke:#181818;stroke-width:0.5;" x1="143" x2="193.4619" y1="34.6094" y2="34.6094"/><text fill="#000000" font-family="sans-serif" font-size="14" lengthAdjust="spacing" textLength="40.4619" x="148" y="53.1426">a ex:C</text></g><!--link ex_a to ex_b--><g id="link_ex_a_ex_b"><path codeLine="8" d="M59.02,33.5 C82.64,33.5 111.91,33.5 135.64,33.5 " fill="transparent" id="ex_a-to-ex_b" style="stroke:#181818;stroke-width:1;"/><polygon fill="#181818" points="141.64,33.5,132.64,29.5,136.64,33.5,132.64,37.5,141.64,33.5" style="stroke:#181818;stroke-width:1;"/><text fill="#000000" font-family="sans-serif" font-size="13" lengthAdjust="spacing" textLength="21.6709" x="90" y="29.9951">ex:r</text></g><!--link ex_b to ex_a--><g id="link_ex_b_ex_a"><path codeLine="10" d="M141.72,49.33 C126.63,56.9 106.97,63.53 89,59.5 C78.8,57.21 73.6277,55.4809 64.5377,50.9409 " fill="transparent" id="ex_b-to-ex_a" style="stroke:#181818;stroke-width:1;"/><polygon fill="#181818" points="59.17,48.26,65.4343,55.8599,63.6431,50.4941,69.0089,48.7029,59.17,48.26" style="stroke:#181818;stroke-width:1;"/><text fill="#000000" font-family="sans-serif" font-size="13" lengthAdjust="spacing" textLength="21.6709" x="90" y="55.9951">ex:r</text></g><!--SRC=[NSmz3i8m30NWFQUms2inPq12JCmS03c9IotoKpb6511tfor583O_ly_kE11GwlK6YP8ZgGQWcvQUnKSQKprpxb4mWOzOwrPLs5sKzhxa0zy9rYPIgw05X4-TGc0XhroocG-0XYC2LbZHO75bvcZXqJB5y0GSUxlxKlUXRg5DADVSRDwTdRIOPVxxCMz_E2xy1G00]--></g></svg>